HIERARCHY
ROOT hip
{
	OFFSET 0.000000 0.000000 0.000000 
	CHANNELS 6 Xposition Yposition Zposition Xrotation Zrotation Yrotation
	JOINT abdomen
	{
		OFFSET 0.000000 3.402643 0.000000 
		CHANNELS 3 Xrotation Zrotation Yrotation
		JOINT chest
		{
			OFFSET 0.000000 8.438565 -0.680529 
			CHANNELS 3 Xrotation Zrotation Yrotation
			JOINT neck
			{
				OFFSET 0.000000 10.207942 -0.272212 
				CHANNELS 3 Xrotation Zrotation Yrotation
				JOINT head
				{
					OFFSET 0.000000 3.130431 0.000000 
					CHANNELS 3 Xrotation Zrotation Yrotation
					End Site
					{
						OFFSET 0.000000 3.130435 0.000000 
					}
				}
			}
			JOINT lCollar
			{
				OFFSET 3.470700 6.669187 -0.816635 
				CHANNELS 3 Yrotation Zrotation Xrotation
				JOINT lShldr
				{
					OFFSET 3.198488 0.000000 0.000000 
					CHANNELS 3 Zrotation Yrotation Xrotation
					JOINT lForeArm
					{
						OFFSET 10.139888 0.000000 0.000000 
						CHANNELS 3 Yrotation Zrotation Xrotation
						JOINT lHand
						{
							OFFSET 8.370511 0.000000 0.000000 
							CHANNELS 3 Zrotation Yrotation Xrotation
							End Site
							{
								OFFSET 4.083176 0.000000 0.000000 
							}
						}
					}
				}
			}
			JOINT rCollar
			{
				OFFSET -3.470700 6.669187 -0.816635 
				CHANNELS 3 Yrotation Zrotation Xrotation
				JOINT rShldr
				{
					OFFSET -3.198488 0.000000 0.000000 
					CHANNELS 3 Zrotation Yrotation Xrotation
					JOINT rForeArm
					{
						OFFSET -10.139888 0.000000 0.000000 
						CHANNELS 3 Yrotation Zrotation Xrotation
						JOINT rHand
						{
							OFFSET -8.370511 0.000000 0.000000 
							CHANNELS 3 Zrotation Yrotation Xrotation
							End Site
							{
								OFFSET -4.083176 0.000000 0.000000 
							}
						}
					}
				}
			}
		}
	}
	JOINT lThigh
	{
		OFFSET 5.308129 -1.633274 1.361059 
		CHANNELS 3 Xrotation Zrotation Yrotation
		JOINT lShin
		{
			OFFSET -2.041588 -20.007561 0.000000 
			CHANNELS 3 Xrotation Zrotation Yrotation
			JOINT lFoot
			{
				OFFSET 0.000000 -19.190928 -1.224953 
				CHANNELS 3 Xrotation Yrotation Zrotation
				End Site
				{
					OFFSET 0.000000 -2.449906 4.627600 
				}
			}
		}
	}
	JOINT rThigh
	{
		OFFSET -5.308129 -1.633274 1.361059 
		CHANNELS 3 Xrotation Zrotation Yrotation
		JOINT rShin
		{
			OFFSET 2.041588 -20.007561 0.000000 
			CHANNELS 3 Xrotation Zrotation Yrotation
			JOINT rFoot
			{
				OFFSET 0.000000 -19.190928 -1.224953 
				CHANNELS 3 Xrotation Yrotation Zrotation
				End Site
				{
					OFFSET 0.000000 -2.449906 4.627600 
				}
			}
		}
	}
}
MOTION
Frames: 10
Frame Time: 0.033333
-0.084519 45.969883 0.298421 -4.975363 4.358579 86.320503 0.000000 0.000000 0.000000 13.671048 3.663030 6.818099 16.725042 4.901924 0.291184 -22.325329 0.460739 -1.643235 -11.528020 14.341764 25.000000 -91.749077 1.217071 -0.618528 -58.166363 9.761281 72.126907 -22.103685 -12.851681 -52.781937 -17.177511 -8.004640 21.937731 72.348381 9.247039 72.124199 38.487514 -49.241043 59.999065 40.955780 13.362890 -79.108589 6.848248 7.290524 19.610046 27.839836 12.379670 1.783074 -10.396474 -13.073939 -3.914718 17.746691 1.727662 1.400298 9.231462 -1.766195 -0.500924 3.301380 -7.764658 14.320871 
-0.052911 45.560143 0.613672 -5.768650 4.352930 86.553398 0.000000 0.000000 0.000000 13.491446 4.055241 6.919625 16.936031 5.425982 0.332557 -21.318802 0.296237 -1.527916 -11.358181 14.763723 25.000000 -91.988258 0.970241 -0.490425 -57.983559 9.989749 72.564911 -22.018583 -13.024864 -52.887848 -17.092100 -7.716963 22.037579 72.454399 9.263035 72.181000 38.896629 -49.464470 61.061871 41.246441 12.758740 -79.229248 3.036420 8.944475 20.242006 34.215343 13.862096 1.762077 -12.147694 -13.340680 -4.687397 19.693630 2.831469 1.720276 6.038717 -1.775424 -0.769580 4.776098 -7.417649 16.097380 
-0.060142 45.093655 0.839619 -6.078120 3.835802 86.457359 0.000000 0.000000 0.000000 12.816169 4.075914 6.952196 17.100077 5.652291 0.345919 -20.537155 -0.093825 -1.461362 -10.482389 16.115675 25.000000 -93.288895 0.268548 0.207455 -57.306255 10.253528 73.706635 -22.252836 -13.139721 -52.772038 -16.918480 -8.535316 21.809940 73.869026 9.513504 72.993958 37.070606 -49.263210 58.667301 41.735180 12.038030 -79.480125 0.017295 9.368327 20.352600 38.296757 15.628287 1.927826 -12.993481 -12.990931 -6.182620 20.529116 3.280058 1.845827 3.748068 -1.717729 -0.928223 5.825956 -6.701810 17.519047 
-0.078103 44.778507 0.963512 -5.750159 3.012139 86.523422 0.000000 0.000000 0.000000 11.751722 3.575989 6.886352 17.421810 5.879344 0.359860 -20.195904 -0.350868 -1.418447 -10.028651 16.799219 25.000000 -94.078224 -0.016055 0.630358 -56.864407 10.524187 74.443459 -22.163000 -13.156442 -52.749561 -16.866461 -8.964240 21.680086 74.971924 9.969507 73.553131 34.082920 -49.159557 55.108315 43.002060 12.705531 -79.556763 -2.109700 8.784787 20.084177 40.192646 16.995207 2.144571 -13.049196 -12.669130 -7.449927 20.550812 2.880022 1.720269 2.208493 -1.352416 -0.944068 6.353645 -6.340957 18.011608 
-0.055117 44.647377 1.032993 -5.406123 2.634729 86.538124 0.000000 0.000000 0.000000 11.119842 3.085611 6.797746 17.898279 6.016149 0.367914 -20.342255 -0.307646 -1.099385 -9.723879 16.645786 25.000000 -94.321091 0.000937 0.767953 -56.345676 10.941929 74.368011 -22.166349 -12.755948 -52.875038 -16.703268 -8.805594 21.755198 75.371323 10.675703 73.636475 31.048380 -48.932487 51.919247 44.043304 12.980038 -79.700996 -2.929267 8.147081 19.834131 40.801102 17.728334 2.254121 -12.859006 -12.648650 -8.074224 20.695164 2.372289 1.580242 1.275558 -0.935138 -0.912724 6.486545 -6.141219 17.795902 
-0.005490 44.660023 1.042777 -5.200588 2.577252 86.513794 0.000000 0.000000 0.000000 10.882476 2.819546 6.753072 18.323427 6.083666 0.377672 -20.547262 -0.281448 -0.780524 -9.552907 16.384768 25.000000 -94.590637 0.163254 0.925028 -55.829659 11.285644 74.174187 -22.314648 -12.164590 -53.063889 -16.609913 -8.591432 21.844002 75.347931 11.288158 73.481857 28.716345 -48.456745 49.147511 44.162449 12.149981 -79.974510 -2.939286 7.836233 19.701471 40.846340 17.811348 2.288313 -12.727130 -12.809271 -7.791449 20.806778 2.079495 1.488726 1.053795 -0.790377 -0.901038 6.368741 -5.967832 17.500898 
0.055274 44.808155 0.981758 -5.113090 2.694330 86.526848 0.000000 0.000000 0.000000 10.931178 2.799906 6.742007 18.599501 6.103313 0.371979 -20.665024 -0.442987 -0.689239 -9.654263 16.195354 25.000000 -94.858963 0.491867 1.081912 -55.598698 11.325036 74.488647 -22.483768 -11.837663 -53.108269 -16.688478 -8.509072 21.856150 75.133217 11.664842 73.259041 27.047581 -47.860786 46.440449 43.796402 11.251411 -80.163147 -2.265490 7.854339 19.738127 40.112709 17.183575 2.192120 -12.644050 -13.074206 -6.621609 20.734369 2.010988 1.475003 1.508745 -1.012351 -0.924930 6.096781 -5.871158 17.408859 
0.132495 45.069675 0.869821 -5.310734 3.140784 86.407852 0.000000 0.000000 0.000000 11.423949 3.168514 6.802121 18.740789 5.935750 0.361005 -20.958153 -0.475689 -0.530987 -9.824082 15.902182 25.000000 -95.099380 0.841449 1.219018 -55.541283 11.263491 75.309807 -22.948395 -11.861726 -52.838039 -16.790001 -8.536882 21.833557 74.868896 12.058282 73.016891 25.521803 -47.184845 43.504059 43.391644 10.499084 -80.314079 -0.304277 8.314224 19.955332 38.071186 15.754723 1.984367 -12.409434 -13.406335 -5.008388 20.707939 2.352775 1.566637 2.497411 -1.648650 -1.005929 5.575024 -5.713719 16.956783 
0.121403 45.314552 0.634275 -5.151098 2.421832 86.617874 0.000000 0.000000 0.000000 10.800770 3.424715 6.893165 18.500580 5.815592 0.356006 -20.469942 -0.495041 -0.838061 -10.623815 16.674883 25.000000 -96.326591 1.179940 1.908431 -56.040676 11.019549 76.749886 -23.352926 -12.225652 -52.307915 -17.501810 -8.999952 21.553558 74.448853 11.925791 72.792000 25.513535 -46.740520 41.351418 43.540413 10.010968 -80.497093 1.062256 8.442045 20.033957 34.751492 13.783432 1.729000 -11.894588 -13.759865 -3.259388 18.570459 2.362965 1.579569 4.893703 -2.291945 -0.965044 4.476498 -6.308635 15.569671 
0.173933 45.662785 0.395417 -5.542941 2.624407 86.591377 0.000000 0.000000 0.000000 11.164248 4.273355 7.073571 18.314615 5.548995 0.338288 -20.424593 -0.982001 -1.271567 -11.322545 16.094372 25.000000 -96.354965 1.745669 1.946333 -56.493645 10.876705 78.038666 -23.641987 -12.810664 -51.829498 -18.014765 -9.462857 21.303398 73.708687 11.608576 72.420319 26.999754 -46.762363 41.524132 44.132999 10.148024 -80.602226 4.350466 8.763955 20.188519 29.969494 11.842664 1.552270 -10.899422 -14.000443 -2.299312 17.283875 2.479899 1.638792 7.586806 -2.255381 -0.757427 3.416368 -6.742681 14.038417 
